<svg xmlns="http://www.w3.org/2000/svg" width="393.933" height="335" viewBox="0 0 393.933 335">
  <g id="email" transform="translate(-388.67 -41.251)">
    <g id="shapes" transform="translate(6.667 9.5)" opacity="0.62">
      <g id="Group_60" data-name="Group 60" transform="translate(673.728 56.121)">
        <path id="Path_111" data-name="Path 111" d="M593.921,253.856l-7.118,7.118-7.118-7.118-5.583,5.583,7.118,7.118-7.118,7.118,5.583,5.583,7.118-7.118,7.118,7.118,5.583-5.583-7.118-7.118,7.118-7.118Z" transform="translate(-571.845 -248.46)" fill="#888"/>
        <path id="Path_112" data-name="Path 112" d="M592.722,247.8l-7.118,7.118-7.118-7.118-5.583,5.583,7.119,7.118-8.454,6.228,5.583,5.583,8.454-6.228,7.118,7.118,5.583-5.583-7.118-7.118,7.118-7.118Z" transform="translate(-571.567 -247.796)" fill="none" stroke="rgba(106,206,182,0.98)" stroke-linecap="round" stroke-linejoin="round" stroke-width="1"/>
      </g>
      <g id="Group_115" data-name="Group 115" transform="translate(428.032 335.952)">
        <path id="Path_111-2" data-name="Path 111" d="M593.921,253.856l-7.118,7.118-7.118-7.118-5.583,5.583,7.118,7.118-7.118,7.118,5.583,5.583,7.118-7.118,7.118,7.118,5.583-5.583-7.118-7.118,7.118-7.118Z" transform="translate(-571.845 -248.46)" fill="#888"/>
        <path id="Path_112-2" data-name="Path 112" d="M592.722,247.8l-7.118,7.118-7.118-7.118-5.583,5.583,7.119,7.118-8.454,6.228,5.583,5.583,8.454-6.228,7.118,7.118,5.583-5.583-7.118-7.118,7.118-7.118Z" transform="translate(-571.567 -247.796)" fill="none" stroke="rgba(106,206,182,0.98)" stroke-linecap="round" stroke-linejoin="round" stroke-width="1"/>
      </g>
      <g id="Group_99" data-name="Group 99" transform="translate(418.492 32.751)">
        <g id="Group_97" data-name="Group 97" transform="translate(16.47 16.47)">
          <path id="Path_246" data-name="Path 246" d="M481.552,90.687a15.135,15.135,0,1,1,15.135-15.135A15.152,15.152,0,0,1,481.552,90.687Zm0-23.148a8.013,8.013,0,1,0,8.013,8.013A8.021,8.021,0,0,0,481.552,67.539Z" transform="translate(-466.417 -60.417)" fill="#888"/>
        </g>
        <g id="Group_98" data-name="Group 98" transform="translate(0 0)">
          <path id="Path_247" data-name="Path 247" d="M463.052,72.187a15.135,15.135,0,1,1,15.135-15.135A15.152,15.152,0,0,1,463.052,72.187Zm0-23.148a8.013,8.013,0,1,0,8.013,8.013A8.021,8.021,0,0,0,463.052,49.039Z" transform="translate(-447.917 -41.917)" fill="none" stroke="#e6db37" stroke-width="2"/>
        </g>
      </g>
      <g id="Group_102" data-name="Group 102" transform="translate(383.146 217.519)">
        <path id="Path_252" data-name="Path 252" d="M271.226,38.071a4.155,4.155,0,1,1-4.155-4.154A4.154,4.154,0,0,1,271.226,38.071Z" transform="translate(-262.917 -33.917)" fill="none" stroke="#888" stroke-linecap="round" stroke-linejoin="round" stroke-width="2.286"/>
        <path id="Path_253" data-name="Path 253" d="M274.309,41.155A4.155,4.155,0,1,1,270.155,37,4.154,4.154,0,0,1,274.309,41.155Z" transform="translate(-263.255 -34.255)" fill="rgba(106,206,182,0.98)"/>
      </g>
      <g id="Group_114" data-name="Group 114" transform="translate(529.479 90.887)">
        <path id="Path_252-2" data-name="Path 252" d="M271.226,38.071a4.155,4.155,0,1,1-4.155-4.154A4.154,4.154,0,0,1,271.226,38.071Z" transform="translate(-262.917 -33.917)" fill="none" stroke="#888" stroke-linecap="round" stroke-linejoin="round" stroke-width="2.286"/>
        <path id="Path_253-2" data-name="Path 253" d="M274.309,41.155A4.155,4.155,0,1,1,270.155,37,4.154,4.154,0,0,1,274.309,41.155Z" transform="translate(-263.255 -34.255)" fill="rgba(106,206,182,0.98)"/>
      </g>
      <g id="Group_116" data-name="Group 116" transform="translate(643.107 340.298)">
        <path id="Path_252-3" data-name="Path 252" d="M271.226,38.071a4.155,4.155,0,1,1-4.155-4.154A4.154,4.154,0,0,1,271.226,38.071Z" transform="translate(-262.917 -33.917)" fill="none" stroke="#888" stroke-linecap="round" stroke-linejoin="round" stroke-width="2.286"/>
        <path id="Path_253-3" data-name="Path 253" d="M274.309,41.155A4.155,4.155,0,1,1,270.155,37,4.154,4.154,0,0,1,274.309,41.155Z" transform="translate(-263.255 -34.255)" fill="rgba(106,206,182,0.98)"/>
      </g>
      <g id="shapes-2" data-name="shapes" transform="translate(745.96 203.431)">
        <path id="Path_123" data-name="Path 123" d="M507.01,79.116a15.8,15.8,0,1,1-22.348,22.348" transform="translate(-484.662 -79.116)" fill="none" stroke="rgba(106,206,182,0.98)" stroke-width="6"/>
        <path id="Path_124" data-name="Path 124" d="M507.246,79.352A15.8,15.8,0,1,1,484.9,101.7" transform="translate(-484.688 -79.142)" fill="none" stroke="#888" stroke-linecap="round" stroke-linejoin="round" stroke-width="2"/>
      </g>
    </g>
    <g id="envelope">
      <g id="Group_1" data-name="Group 1">
        <path id="Path_1" data-name="Path 1" d="M428.11,122.63c2.82-.98,5.41-3.69,8.61-2.59-.16,8.84.1,17.69-.11,26.54-1.13-.02-2.25-.02-3.37-.03-.07-7.74.07-15.49-.06-23.24a41.929,41.929,0,0,0-4.72,2.53C428.34,124.77,428.22,123.7,428.11,122.63Z" fill="#fff"/>
      </g>
      <g id="Group_3" data-name="Group 3">
        <g id="Group_2" data-name="Group 2">
          <path id="Path_2" data-name="Path 2" d="M419.65,106.74c10.32-6.06,24.46-4.82,33.46,3.12,5.38,4.27,8.68,10.67,10.85,17.07,1.43,6.75,1.42,14.16-1.76,20.43a29.468,29.468,0,0,1-19.32,16.21c-.21.55-.62,1.65-.82,2.2-.23-.35-.68-1.06-.9-1.41-2.98.03-5.95.25-8.92.09a29.238,29.238,0,0,1-20.43-11.26c-5.57-7.43-8.82-17.05-6.87-26.34A29.737,29.737,0,0,1,419.65,106.74Zm8.46,15.89c.11,1.07.23,2.14.35,3.21a41.929,41.929,0,0,1,4.72-2.53c.13,7.75-.01,15.5.06,23.24,1.12.01,2.24.01,3.37.03.21-8.85-.05-17.7.11-26.54C433.52,118.94,430.93,121.65,428.11,122.63Z" fill="rgba(106,206,182,0.98)"/>
        </g>
      </g>
      <g id="Group_4" data-name="Group 4">
        <path id="Path_3" data-name="Path 3" d="M463.96,126.93a48.909,48.909,0,0,1,9.14-.38q108.93,0,217.87,0c7.72-.99,16.21,2.48,19.51,9.85.84,5.51.57,11.12.74,16.69l-.37.55c-1.8,2.67-3.62,5.46-6.49,7.1-40.92,26.25-82,52.26-122.87,78.58a19.952,19.952,0,0,1-21.97-.94c-33.97-22.02-68.06-43.85-102.05-65.83-4.9-2.94-9.47-6.42-14.59-8.98a29.468,29.468,0,0,0,19.32-16.21C465.38,141.09,465.39,133.68,463.96,126.93Z" fill="#fff44b"/>
      </g>
      <g id="Group_5" data-name="Group 5">
        <path id="Path_6" data-name="Path 6" d="M704.36,160.74c2.87-1.64,4.69-4.43,6.49-7.1.73,13.11.1,26.29.31,39.43q0,46.485.01,92.96a70.448,70.448,0,0,1-.49,10.27c-3.96-5.54-10.01-8.77-15.54-12.46-24.47-15.01-48.26-31.11-72.68-46.21-4.82-3.33-10.11-5.96-14.64-9.68,15.04-10.4,30.62-20,45.71-30.32,12.58-8.42,25.42-16.42,37.88-25.01,4.76-3,9.84-5.79,13.59-10.06.11-.38.33-1.14.44-1.53Z" fill="#f6e818"/>
        <path id="Path_7" data-name="Path 7" d="M432.24,164.45c2.97.16,5.94-.06,8.92-.09.22.35.67,1.06.9,1.41,3.73,3.42,8.4,5.58,12.4,8.67q14.28,9.315,28.39,18.89c16.43,10.43,32.26,21.76,48.76,32.09a12.191,12.191,0,0,1,3.32,2.88c-1.19.78-2.38,1.54-3.55,2.34l-1.04.08c-4.55,3.41-9.4,6.4-14.25,9.37-24.3,16.15-49.03,31.64-73.47,47.58-4.67,2.44-9.3,6.12-10.17,11.66C432.17,254.37,432.55,209.41,432.24,164.45Z" fill="#f6e818"/>
      </g>
      <g id="Group_6" data-name="Group 6">
        <path id="Path_8" data-name="Path 8" d="M704.36,160.74l1.08.29c-.11.39-.33,1.15-.44,1.53-3.75,4.27-8.83,7.06-13.59,10.06-12.46,8.59-25.3,16.59-37.88,25.01-15.09,10.32-30.67,19.92-45.71,30.32,4.53,3.72,9.82,6.35,14.64,9.68,24.42,15.1,48.21,31.2,72.68,46.21,5.53,3.69,11.58,6.92,15.54,12.46.19,7.46,2.27,16.21-2.87,22.51a18.567,18.567,0,0,1-13.85,5.75q-122.49-.03-244.97-.02a17.5,17.5,0,0,1-14.39-7.15c-3.57-5.34-1.89-12.06-2.15-18.06.87-5.54,5.5-9.22,10.17-11.66,24.44-15.94,49.17-31.43,73.47-47.58,4.85-2.97,9.7-5.96,14.25-9.37l1.04-.08c1.17-.8,2.36-1.56,3.55-2.34a12.191,12.191,0,0,0-3.32-2.88c-16.5-10.33-32.33-21.66-48.76-32.09q-14.13-9.54-28.39-18.89c-4-3.09-8.67-5.25-12.4-8.67.2-.55.61-1.65.82-2.2,5.12,2.56,9.69,6.04,14.59,8.98,33.99,21.98,68.08,43.81,102.05,65.83a19.952,19.952,0,0,0,21.97.94C622.36,213,663.44,186.99,704.36,160.74Z" fill="#e6db37"/>
      </g>
    </g>
  </g>
</svg>
