<svg xmlns="http://www.w3.org/2000/svg" width="304.667" height="126.033" viewBox="0 0 304.667 126.033">
  <g id="Group_194" data-name="Group 194" transform="translate(-2126.772 -58.699)">
    <g id="Group_175" data-name="Group 175" transform="translate(2126.772 83.593)">
      <path id="Path_142" data-name="Path 142" d="M2126.772,108.422q2.561-.4,5.922-.64t8.4-.239a46.019,46.019,0,0,1,8.323.72,20.78,20.78,0,0,1,6.843,2.44,12.709,12.709,0,0,1,4.6,4.6,14.109,14.109,0,0,1,1.681,7.2,14.489,14.489,0,0,1-.761,4.762,13.182,13.182,0,0,1-2.041,3.841,12.584,12.584,0,0,1-2.881,2.721,7.8,7.8,0,0,1-3.281,1.32,17.506,17.506,0,0,1,4.082,1.122,13.47,13.47,0,0,1,7.363,7.042,15.339,15.339,0,0,1,1.281,6.563,16.6,16.6,0,0,1-1.961,8.525,14.44,14.44,0,0,1-5.283,5.242,22.581,22.581,0,0,1-7.683,2.642,56.351,56.351,0,0,1-9.164.72q-3.683,0-7.283-.2t-8.164-.761Zm15.127,23.37a18.154,18.154,0,0,0,3.722-.361,7.814,7.814,0,0,0,3-1.281,6.17,6.17,0,0,0,2-2.48,9.481,9.481,0,0,0,.72-3.963,7.637,7.637,0,0,0-.841-3.8,6.484,6.484,0,0,0-2.16-2.321,7.968,7.968,0,0,0-2.962-1.12,19.267,19.267,0,0,0-3.242-.28,24.839,24.839,0,0,0-3.761.239v15.367Zm-3.521,25.451q1.12.161,2.6.24t2.681.081a20.531,20.531,0,0,0,3.522-.321,10.421,10.421,0,0,0,3.441-1.24,7.577,7.577,0,0,0,2.641-2.562,7.9,7.9,0,0,0,1.04-4.282,9.389,9.389,0,0,0-.8-4.121,6.655,6.655,0,0,0-2.281-2.641,9.481,9.481,0,0,0-3.522-1.4,23.539,23.539,0,0,0-4.521-.4h-4.8Z" transform="translate(-2126.772 -107.062)" fill="#fff"/>
      <path id="Path_143" data-name="Path 143" d="M2237.948,153.787a6.633,6.633,0,0,0-.641-3.122,4.8,4.8,0,0,0-1.761-1.88,7.334,7.334,0,0,0-2.76-.921,25.218,25.218,0,0,0-3.642-.24,28.313,28.313,0,0,0-9.2,1.681,21.446,21.446,0,0,1-1.681-3.922,15.193,15.193,0,0,1-.56-4.4,42.556,42.556,0,0,1,7.042-1.76,41.863,41.863,0,0,1,6.563-.562q8.323,0,13.005,4t4.682,12.806v24.01a66.49,66.49,0,0,1-6.8,1.68,46.377,46.377,0,0,1-9.043.8,36.245,36.245,0,0,1-7.483-.72,16.035,16.035,0,0,1-5.843-2.4,11.3,11.3,0,0,1-3.761-4.321,14.4,14.4,0,0,1-1.321-6.483,11.855,11.855,0,0,1,1.64-6.443,12.658,12.658,0,0,1,4.242-4.162,18.754,18.754,0,0,1,5.8-2.241,30.755,30.755,0,0,1,6.4-.68q2.32,0,5.123.24Zm0,8.243q-.961-.161-2.081-.28a18.743,18.743,0,0,0-2-.12,11.8,11.8,0,0,0-6.2,1.4,4.9,4.9,0,0,0-2.281,4.521,5.074,5.074,0,0,0,.88,3.2,5.22,5.22,0,0,0,2.121,1.64,8.653,8.653,0,0,0,2.642.641q1.4.119,2.441.119a14.621,14.621,0,0,0,2.4-.2q1.2-.2,2.081-.361Z" transform="translate(-2169.039 -122.014)" fill="#fff"/>
      <path id="Path_144" data-name="Path 144" d="M2305.867,162.99a15.828,15.828,0,0,1-7-3.8q-2.522-2.52-2.521-7.563a11.457,11.457,0,0,1,4.362-9.525q4.362-3.439,11.885-3.442a33.9,33.9,0,0,1,6.162.562,39.446,39.446,0,0,1,6.163,1.68,21.9,21.9,0,0,1-.8,4.322,20.8,20.8,0,0,1-1.52,3.921,31.785,31.785,0,0,0-4.242-1.4,19.436,19.436,0,0,0-4.882-.6,8.853,8.853,0,0,0-4.242.84,2.841,2.841,0,0,0-1.521,2.681,2.758,2.758,0,0,0,1.081,2.481,12.59,12.59,0,0,0,3.081,1.361l4.562,1.36a22.578,22.578,0,0,1,4.042,1.561,11.2,11.2,0,0,1,3.081,2.281,9.565,9.565,0,0,1,2,3.362,14.5,14.5,0,0,1,.72,4.882,12.509,12.509,0,0,1-1.24,5.522,12.761,12.761,0,0,1-3.6,4.442,17.866,17.866,0,0,1-5.722,2.961,24.8,24.8,0,0,1-7.6,1.081q-1.921,0-3.521-.121a27.6,27.6,0,0,1-3.081-.4q-1.482-.281-2.921-.68t-3.122-1.041a22.947,22.947,0,0,1,.761-4.361,27.418,27.418,0,0,1,1.56-4.282,33.22,33.22,0,0,0,5,1.561,22.744,22.744,0,0,0,4.922.52,16.423,16.423,0,0,0,2.441-.2,8.962,8.962,0,0,0,2.441-.721,5.79,5.79,0,0,0,1.88-1.361,3.729,3.729,0,0,0-.4-4.962,11.245,11.245,0,0,0-3.242-1.481Z" transform="translate(-2207.827 -122.014)" fill="#fff"/>
      <path id="Path_145" data-name="Path 145" d="M2369.564,107.1a32.13,32.13,0,0,1,5.6-.481,33.547,33.547,0,0,1,5.683.481v58.5a33.546,33.546,0,0,1-5.683.481,32.129,32.129,0,0,1-5.6-.481Zm12.885,36.815,10.245-19.688a41.533,41.533,0,0,1,6.323-.481,35.979,35.979,0,0,1,5.922.481l-10.565,19.128L2406.7,165.6a43.628,43.628,0,0,1-6.323.481,38.943,38.943,0,0,1-5.922-.481Z" transform="translate(-2243.432 -106.617)" fill="#fff"/>
      <path id="Path_146" data-name="Path 146" d="M2444.125,140.066a17.953,17.953,0,0,1,3.241-.44q1.4-.039,2.6-.041,1.6,0,3.281.081a16.931,16.931,0,0,1,3.042.4l8.643,36.095,9.764-36.095a30.363,30.363,0,0,1,5.442-.481q1.2,0,2.561.041a20.886,20.886,0,0,1,3.362.44l-15.446,51.142a20.252,20.252,0,0,1-2.281,5.042,10.9,10.9,0,0,1-3,3.121,10.746,10.746,0,0,1-3.761,1.561,21.688,21.688,0,0,1-4.482.44,26.489,26.489,0,0,1-4.042-.28,32.721,32.721,0,0,1-3.561-.761,3.52,3.52,0,0,1-.08-.68v-.6a14.626,14.626,0,0,1,.44-3.641,26.346,26.346,0,0,1,1.08-3.321,13.21,13.21,0,0,0,1.921.44,14.8,14.8,0,0,0,2.4.2,15.373,15.373,0,0,0,1.921-.12,4.433,4.433,0,0,0,1.881-.721,5.971,5.971,0,0,0,1.721-1.881,14.027,14.027,0,0,0,1.441-3.6l1.361-4.963c-.588.054-1.241.092-1.961.119s-1.454.041-2.2.041h-1.681a5.952,5.952,0,0,1-1.44-.16Z" transform="translate(-2279.259 -122.458)" fill="#fff"/>
    </g>
    <g id="Group_193" data-name="Group 193" transform="translate(2322.6 58.699)">
      <path id="Path_147" data-name="Path 147" d="M2544.489,149.553h-.72a11.565,11.565,0,0,0-5.362,1.122,15.256,15.256,0,0,0-3.041,1.92,10.356,10.356,0,0,1-1.16-2.121q-.522-1.241-.921-2.2a14.786,14.786,0,0,1-.64-1.841,17.092,17.092,0,0,1-.4-1.92,14.544,14.544,0,0,1,4.6-2.841,22,22,0,0,1,8.043-1.161h41.938a19.538,19.538,0,0,1,.32,2.161c.053.64.081,1.308.081,2q0,1.121-.081,2.36a21.131,21.131,0,0,1-.32,2.521h-10.084V165.4a22.852,22.852,0,0,0,.281,4,6.29,6.29,0,0,0,.88,2.4,2.985,2.985,0,0,0,1.6,1.2,8.345,8.345,0,0,0,2.521.321,13.929,13.929,0,0,0,2.361-.2q1.158-.2,2.04-.361a18.508,18.508,0,0,1,1.04,6.323q0,.641-.04,1.2c-.027.374-.068.775-.12,1.2a32.634,32.634,0,0,1-7.6.881q-7.284,0-10.725-3.4t-3.441-11.085V149.553h-9.924v32.334a34.027,34.027,0,0,1-5.6.481,33.569,33.569,0,0,1-5.523-.481Z" transform="translate(-2517.428 -98.009)" fill="#e6db37"/>
      <g id="Group_176" data-name="Group 176" transform="translate(44.487 67.932)">
        <path id="Path_148" data-name="Path 148" d="M2590.691,230.817a1.334,1.334,0,0,1,0-2.668,43.758,43.758,0,0,0,43.185-37.538,1.335,1.335,0,0,1,1.532-1.134l8.274,1.321a1.334,1.334,0,0,1-.421,2.634l-6.95-1.11A46.449,46.449,0,0,1,2590.691,230.817Z" transform="translate(-2589.358 -189.462)" fill="#e6db37"/>
      </g>
      <g id="Group_177" data-name="Group 177" transform="translate(44.487 16.745)">
        <path id="Path_149" data-name="Path 149" d="M2617.353,102.36a1.326,1.326,0,0,1-.791-.261,43.261,43.261,0,0,0-25.87-8.5,1.334,1.334,0,0,1,0-2.668,45.914,45.914,0,0,1,27.454,9.021,1.334,1.334,0,0,1-.793,2.407Z" transform="translate(-2589.358 -90.932)" fill="#e6db37"/>
      </g>
      <g id="Group_178" data-name="Group 178" transform="translate(10.64 17.276)">
        <path id="Path_150" data-name="Path 150" d="M2525.539,109.468a1.334,1.334,0,0,1-1-2.212,46.292,46.292,0,0,1,27.722-15.287,1.334,1.334,0,1,1,.408,2.636,43.621,43.621,0,0,0-26.121,14.407A1.335,1.335,0,0,1,2525.539,109.468Z" transform="translate(-2524.206 -91.954)" fill="#e6db37"/>
      </g>
      <g id="Group_179" data-name="Group 179" transform="translate(44.487 8.363)">
        <path id="Path_151" data-name="Path 151" d="M2608.278,181.135a1.334,1.334,0,0,1-.439-2.593,51.995,51.995,0,0,0-17.147-101.077,1.334,1.334,0,0,1,0-2.668,54.663,54.663,0,0,1,18.027,106.264A1.329,1.329,0,0,1,2608.278,181.135Z" transform="translate(-2589.358 -74.797)" fill="#e6db37"/>
      </g>
      <g id="Group_180" data-name="Group 180" transform="translate(0 8.363)">
        <path id="Path_152" data-name="Path 152" d="M2505.057,101.382a1.334,1.334,0,0,1-1.111-2.07,54.569,54.569,0,0,1,45.6-24.515,1.334,1.334,0,0,1,0,2.668,51.908,51.908,0,0,0-43.374,23.32A1.333,1.333,0,0,1,2505.057,101.382Z" transform="translate(-2503.724 -74.797)" fill="#e6db37"/>
      </g>
      <g id="Group_181" data-name="Group 181" transform="translate(44.487 102.477)">
        <path id="Path_153" data-name="Path 153" d="M2590.691,279.514a1.334,1.334,0,0,1,0-2.668,60.4,60.4,0,0,0,45.268-20.437,1.335,1.335,0,0,1,2,1.766A63.076,63.076,0,0,1,2590.691,279.514Z" transform="translate(-2589.358 -255.958)" fill="#e6db37"/>
      </g>
      <g id="Group_182" data-name="Group 182" transform="translate(99.325 37.189)">
        <path id="Path_154" data-name="Path 154" d="M2696.249,185.715a1.334,1.334,0,0,1-1.184-1.946,60.5,60.5,0,0,0,1.751-51.621,1.334,1.334,0,1,1,2.448-1.06,63.168,63.168,0,0,1-1.828,53.905A1.336,1.336,0,0,1,2696.249,185.715Z" transform="translate(-2694.916 -130.284)" fill="#e6db37"/>
      </g>
      <g id="Group_183" data-name="Group 183" transform="translate(62.361 2.629)">
        <path id="Path_155" data-name="Path 155" d="M2663.852,100.987a1.333,1.333,0,0,1-1.224-.8,60.265,60.265,0,0,0-37.917-33.814,1.334,1.334,0,0,1,.772-2.553,62.922,62.922,0,0,1,39.592,35.307,1.334,1.334,0,0,1-1.223,1.864Z" transform="translate(-2623.763 -63.759)" fill="#e6db37"/>
      </g>
      <g id="Group_184" data-name="Group 184" transform="translate(44.487)">
        <path id="Path_156" data-name="Path 156" d="M2608.566,64a1.329,1.329,0,0,1-.386-.057,60.374,60.374,0,0,0-17.488-2.572,1.334,1.334,0,0,1,0-2.668,63.061,63.061,0,0,1,18.26,2.686,1.334,1.334,0,0,1-.386,2.611Z" transform="translate(-2589.358 -58.699)" fill="#e6db37"/>
      </g>
      <g id="Group_185" data-name="Group 185" transform="translate(2.579)">
        <path id="Path_157" data-name="Path 157" d="M2510.023,77.789a1.334,1.334,0,0,1-.906-2.312A62.808,62.808,0,0,1,2551.931,58.7a1.334,1.334,0,0,1,0,2.668,60.151,60.151,0,0,0-41,16.067A1.326,1.326,0,0,1,2510.023,77.789Z" transform="translate(-2508.689 -58.699)" fill="#e6db37"/>
      </g>
      <g id="Group_186" data-name="Group 186" transform="translate(0.884 33.459)">
        <line id="Line_19" data-name="Line 19" x1="0.554" fill="#afff00"/>
      </g>
      <g id="Group_187" data-name="Group 187" transform="translate(0.139 33.459)">
        <line id="Line_20" data-name="Line 20" x1="0.745" fill="#afff00"/>
      </g>
      <g id="Group_188" data-name="Group 188" transform="translate(71.147 19.345)">
        <path id="Path_158" data-name="Path 158" d="M2642.01,104.769a1.334,1.334,0,0,1-.976-2.243l5.744-6.165a1.334,1.334,0,1,1,1.951,1.818l-5.744,6.165A1.332,1.332,0,0,1,2642.01,104.769Z" transform="translate(-2640.677 -95.937)" fill="#e6db37"/>
      </g>
      <g id="Group_189" data-name="Group 189" transform="translate(42.497 104.629)">
        <circle id="Ellipse_19" data-name="Ellipse 19" cx="3.324" cy="3.324" r="3.324" fill="#e6db37"/>
      </g>
      <g id="Group_190" data-name="Group 190" transform="translate(0.512 14.348)">
        <circle id="Ellipse_20" data-name="Ellipse 20" cx="3.324" cy="3.324" r="3.324" fill="#e6db37"/>
      </g>
      <g id="Group_191" data-name="Group 191" transform="translate(93.511 37.281)">
        <path id="Path_159" data-name="Path 159" d="M2685.059,136.535a1.334,1.334,0,0,1-.544-2.552l7.642-3.405a1.334,1.334,0,1,1,1.086,2.436l-7.642,3.405A1.313,1.313,0,0,1,2685.059,136.535Z" transform="translate(-2683.724 -130.461)" fill="#e6db37"/>
      </g>
      <g id="Group_192" data-name="Group 192" transform="translate(76.19 104.558)">
        <path id="Path_160" data-name="Path 160" d="M2656.436,269.539a1.331,1.331,0,0,1-1.1-.582l-4.718-6.909a1.333,1.333,0,1,1,2.2-1.5l4.718,6.909a1.334,1.334,0,0,1-1.1,2.086Z" transform="translate(-2650.383 -259.963)" fill="#e6db37"/>
      </g>
    </g>
  </g>
</svg>
